<?xml version="1.0" encoding="UTF-8"?>
<svg width="600px" height="300px" viewBox="0 0 600 300" version="1.1" xmlns="http://www.w3.org/2000/svg" xmlns:xlink="http://www.w3.org/1999/xlink">
    <title>Group 3</title>
    <defs>
        <rect id="path-1" x="0" y="0" width="600" height="300" rx="29"></rect>
    </defs>
    <g id="home-page-button" stroke="none" stroke-width="1" fill="none" fill-rule="evenodd">
        <g id="Group-3" transform="translate(-0.001443, 0.000000)">
            <rect id="Rectangle" fill="#DDE2FF" x="0.00144262595" y="0" width="600" height="300" rx="29"></rect>
            <g id="Group-2" transform="translate(0.001443, 0.000000)">
                <mask id="mask-2" fill="white">
                    <use xlink:href="#path-1"></use>
                </mask>
                <use id="Mask" fill="#DDE2FF" xlink:href="#path-1"></use>
                <g mask="url(#mask-2)" id="iPhone-X---Outline">
                    <g transform="translate(308.000000, 23.000000)" id="Device">
                        <rect id="Rectangle-4" fill="#3C3C3C" x="0" y="64" width="1" height="18"></rect>
                        <rect id="Rectangle-4-Copy" fill="#3C3C3C" x="0" y="98" width="1" height="32"></rect>
                        <rect id="Rectangle-4-Copy" fill="#3C3C3C" x="227" y="108" width="1" height="52"></rect>
                        <rect id="Rectangle-4-Copy-2" fill="#3C3C3C" x="0" y="138" width="1" height="32"></rect>
                        <circle id="Oval-2" fill="#3C3C3C" cx="139.5" cy="20.5" r="3.5"></circle>
                        <path d="M197.176422,1.062882 C205.394611,1.062882 212.834785,4.39396136 218.220412,9.77958805 C223.606039,15.1652147 226.937118,22.6053887 226.937118,30.823578 L226.937118,30.823578 L226.937118,431.176422 C226.937118,439.394611 223.606039,446.834785 218.220412,452.220412 C212.834785,457.606039 205.394611,460.937118 197.176422,460.937118 L197.176422,460.937118 L32.823578,460.937118 C24.6053887,460.937118 17.1652147,457.606039 11.779588,452.220412 C6.39396136,446.834785 3.062882,439.394611 3.062882,431.176422 L3.062882,431.176422 L3.062882,30.823578 C3.062882,22.6053887 6.39396136,15.1652147 11.779588,9.77958805 C17.1652147,4.39396136 24.6053887,1.062882 32.823578,1.062882 L32.823578,1.062882 Z" id="Rectangle-2" stroke="#3C3C3C" stroke-width="2.125764"></path>
                        <path d="M195.239304,5.531441 C203.31074,5.531441 210.618054,8.8030368 215.907508,14.0924916 C221.196963,19.3819464 224.468559,26.6892601 224.468559,34.760696 L224.468559,34.760696 L224.468559,429.239304 C224.468559,437.31074 221.196963,444.618054 215.907508,449.907508 C210.618054,455.196963 203.31074,458.468559 195.239304,458.468559 L195.239304,458.468559 L35.760696,458.468559 C27.6892601,458.468559 20.3819464,455.196963 15.0924916,449.907508 C9.8030368,444.618054 6.531441,437.31074 6.531441,429.239304 L6.531441,429.239304 L6.531441,34.760696 C6.531441,26.6892601 9.8030368,19.3819464 15.0924916,14.0924916 C20.3819464,8.8030368 27.6892601,5.531441 35.760696,5.531441 L35.760696,5.531441 Z" id="Rectangle-2" stroke="#000000" stroke-width="1.062882"></path>
                        <path d="M57.1547986,18.531441 C58.4393381,18.531441 59.2521441,18.8991345 59.7707757,19.5610855 C60.5199818,20.5173282 60.7027263,21.9833318 60.9356746,23.5738422 C61.3278104,26.2512424 61.8122803,29.256184 64.3975933,31.2943598 C66.2023751,32.7171905 69.0516031,33.6865104 73.7006562,33.6762909 C87.6205096,33.6456922 124.496082,33.6617729 145.033473,33.671125 L146.76117,33.6719127 C151.148339,33.6739131 154.657466,33.6754982 156.845671,33.6760661 L158.273532,33.6762921 C162.518764,33.6762921 165.113814,32.7155171 166.757786,31.3092016 C169.091527,29.3128314 169.535577,26.3732808 169.895952,23.724708 C170.118108,22.0919855 170.292913,20.5790752 171.037161,19.5904518 C171.548142,18.91169 172.35212,18.531441 173.623897,18.5314397 C178.242358,18.5415266 186.338781,18.6801367 198.360473,18.9477028 C202.837297,19.0473433 206.864318,20.926025 209.772134,23.8992797 C212.679949,26.8725345 214.468559,30.9403623 214.468559,35.4182948 L214.468559,35.4182948 L214.468559,432.993888 C214.468559,437.543243 212.624569,441.661911 209.64324,444.64324 C206.661911,447.624569 202.543243,449.468559 197.993888,449.468559 L197.993888,449.468559 L33.006112,449.468559 C28.4567572,449.468559 24.3380895,447.624569 21.3567604,444.64324 C18.3754314,441.661911 16.531441,437.543243 16.531441,432.993888 L16.531441,432.993888 L16.531441,35.4141293 C16.531442,30.9367499 18.3196261,26.8693186 21.2268734,23.896132 C24.1341204,20.9229455 28.1604305,19.0440036 32.6366838,18.9436028 C44.4398042,18.6788629 52.4581417,18.5416176 56.6916967,18.5319862 Z" id="SCREEN" stroke="#000000" stroke-width="1.062882"></path>
                        <rect id="Rectangle-3" fill="#3C3C3C" x="102" y="23" width="26" height="4" rx="2"></rect>
                        <rect id="Rectangle-5" stroke="#3C3C3C" stroke-width="0.531441" x="3.2657205" y="53.2657205" width="3.468559" height="3.468559"></rect>
                    </g>
                </g>
            </g>
            <path d="M132.191848,286.059923 L134.99259,287.135027 C134.722537,287.838539 134.881741,288.348408 135.785316,289.703757 L135.919496,289.903242 C137.462659,292.179146 137.921355,293.457473 137.164108,295.430169 C136.434907,297.329803 135.298624,297.996463 132.831564,298.631471 L132.540945,298.704669 C130.891889,299.111577 130.354187,299.368513 130.059771,299.999752 L126.921509,300.001176 C126.980786,299.70365 127.073108,299.394697 127.199081,299.066528 C127.928282,297.166895 129.064565,296.500235 131.531624,295.865227 L131.822244,295.792029 C133.589644,295.355918 134.080454,295.092078 134.363367,294.355066 C134.62056,293.685054 134.488405,293.190683 133.694693,291.974318 L133.43646,291.58685 C131.950452,289.39524 131.470066,288.128679 132.112707,286.27634 L132.191848,286.059923 Z M269.634897,262.261995 L284.053823,266.396556 C284.584713,266.548786 284.891678,267.102565 284.739447,267.633455 L280.604887,282.05238 C280.452657,282.58327 279.898878,282.890235 279.367988,282.738005 L264.949062,278.603444 C264.418172,278.451214 264.111208,277.897435 264.263438,277.366545 L268.397998,262.94762 C268.550229,262.41673 269.104007,262.109765 269.634897,262.261995 Z M0.501442626,255 C5.195863,255 9.00144263,258.80558 9.00144263,263.5 C9.00144263,268.19442 5.195863,272 0.501442626,272 C0.338833167,272 0.177290186,271.995434 0.0169349054,271.986423 C0.00695735265,271.658878 0.00144262595,271.330083 0.00144262595,271 L0.000969845468,255.014489 C0.166566515,255.004874 0.333435343,255 0.501442626,255 Z M560.597427,234.84575 L560.890721,234.907359 C562.589533,235.272763 563.174081,235.269344 563.72587,234.800008 L563.804591,234.72978 L565.850586,236.923841 C564.36244,238.31156 563.048911,238.412636 560.553163,237.901889 L559.80388,237.745999 C558.378756,237.465741 557.870877,237.528403 557.345999,238.017859 C556.821121,238.507316 556.723184,239.009586 556.903348,240.450789 L556.965591,240.912244 C557.354887,243.63429 557.206778,244.984322 555.661396,246.425415 C554.17325,247.813134 552.85972,247.91421 550.363973,247.403463 L550.070678,247.341854 C548.290971,246.95905 547.734174,246.981031 547.156809,247.519433 C546.631931,248.008889 546.533994,248.51116 546.714157,249.952363 L546.776401,250.413817 C547.151278,253.035047 547.027822,254.384011 545.638208,255.767167 L545.472205,255.926988 L543.42621,253.732927 C543.977332,253.218998 544.057752,252.690941 543.83977,251.07666 L543.806618,250.838543 C543.417323,248.116497 543.565431,246.766465 545.110814,245.325372 C546.59896,243.937653 547.912489,243.836577 550.408236,244.347324 L550.701531,244.408933 C552.481238,244.791737 553.038035,244.769756 553.615401,244.231354 C554.166522,243.717425 554.246942,243.189368 554.02896,241.575086 L553.995809,241.336969 C553.606513,238.614923 553.754621,237.264891 555.300004,235.823798 C556.78815,234.43608 558.101679,234.335004 560.597427,234.84575 Z M97.998533,236.539934 C98.0649555,236.680461 98.0977055,236.834538 98.0941829,236.989932 L97.7186858,253.554856 C97.7061697,254.106999 97.2484231,254.544453 96.6962802,254.531937 C96.5107111,254.52773 96.3299749,254.471958 96.1743036,254.370864 L81.5697181,244.886535 C81.1065331,244.58574 80.9748907,243.966411 81.2756866,243.503226 C81.3767807,243.347555 81.519207,243.223092 81.6870218,243.143772 L96.6671045,236.063176 C97.1664214,235.827166 97.7625222,236.040617 97.998533,236.539934 Z M252.20563,205.63947 C252.245069,206.392 252.597891,206.793034 253.974618,207.66369 L254.178336,207.791353 C256.513779,209.242833 257.452761,210.224075 257.563349,212.334223 C257.669841,214.366217 256.90295,215.43741 254.90746,217.020961 L254.671738,217.206037 C253.23452,218.32331 252.893456,218.76397 252.934773,219.552336 C252.974211,220.304867 253.327033,220.7059 254.703761,221.576557 L254.907478,221.70422 C257.242921,223.1557 258.181903,224.136941 258.292492,226.247089 C258.398984,228.279084 257.632093,229.350276 255.636602,230.933828 L255.400881,231.118903 C254.02899,232.185391 253.655869,232.635379 253.660718,233.359757 L253.663915,233.465202 L250.668027,233.62221 C250.561534,231.590216 251.328426,230.519024 253.323916,228.935472 L253.924965,228.461692 C255.055707,227.55013 255.334163,227.120793 255.296603,226.404097 C255.259043,225.687401 254.937234,225.289523 253.717402,224.50115 L253.323898,224.252213 C250.988455,222.800733 250.049472,221.819492 249.938884,219.709344 C249.832392,217.677349 250.599283,216.606157 252.594773,215.022605 L252.830495,214.83753 C254.267713,213.720257 254.608777,213.279597 254.567461,212.491231 C254.5299,211.774535 254.208091,211.376657 252.988259,210.588283 L252.594755,210.339347 C250.34581,208.941626 249.3918,207.979955 249.225467,206.026374 L249.209742,205.796477 L252.20563,205.63947 Z M600.001095,214.287771 L600.001095,228.712229 C597.599135,227.210264 596.001443,224.541713 596.001443,221.5 C596.001443,218.458287 597.599135,215.789736 600.001095,214.287771 Z M153.501443,202 C158.195863,202 162.001443,205.80558 162.001443,210.5 C162.001443,215.19442 158.195863,219 153.501443,219 C148.807022,219 145.001443,215.19442 145.001443,210.5 C145.001443,205.80558 148.807022,202 153.501443,202 Z M44.7762318,172.394806 L53.8034571,184.374339 C54.1358304,184.815413 54.0477109,185.442416 53.6066366,185.774789 L41.627104,194.802015 C41.1860298,195.134388 40.5590267,195.046268 40.2266535,194.605194 L31.1994281,182.625661 C30.8670549,182.184587 30.9551744,181.557584 31.3962486,181.225211 L43.3757813,172.197985 C43.8168555,171.865612 44.4438585,171.953732 44.7762318,172.394806 Z M262.501443,133 C267.195863,133 271.001443,136.80558 271.001443,141.5 C271.001443,146.19442 267.195863,150 262.501443,150 C257.807022,150 254.001443,146.19442 254.001443,141.5 C254.001443,136.80558 257.807022,133 262.501443,133 Z M72.1793302,119.247173 L73.6337591,121.871032 C72.9746775,122.236367 72.7688979,122.729283 72.5898747,124.348348 L72.5644359,124.587412 C72.2836451,127.322781 71.8133339,128.596881 69.9652239,129.621305 C68.1855626,130.607787 66.8865984,130.38809 64.5885461,129.288738 L64.3188681,129.158005 C62.6846344,128.356022 62.1390591,128.242648 61.4485926,128.62538 C60.789511,128.990715 60.5837315,129.483631 60.4047083,131.102696 L60.3792695,131.34176 C60.0984787,134.077129 59.6281674,135.351229 57.7800575,136.375653 C56.0003961,137.362135 54.701432,137.142438 52.4033796,136.043086 L52.1337017,135.912353 C50.5737513,135.146824 50.0057397,135.008726 49.3567985,135.330631 L49.2634262,135.379728 L47.8089973,132.755869 C49.5886587,131.769387 50.8876229,131.989085 53.1856752,133.088436 L53.8749885,133.420964 C55.1899799,134.037666 55.6979319,134.099732 56.3256286,133.751794 C56.9533254,133.403856 57.1698639,132.940198 57.3437102,131.49822 L57.3949518,131.035414 C57.6757426,128.300045 58.1460539,127.025945 59.9941638,126.001521 C61.7738252,125.015039 63.0727893,125.234736 65.3708417,126.334088 L65.6405196,126.464821 C67.2747533,127.266804 67.8203287,127.380177 68.5107951,126.997446 C69.1384918,126.649508 69.3550303,126.18585 69.5288766,124.743872 L69.5801182,124.281066 C69.8505094,121.647007 70.2966424,120.367979 71.9795942,119.362087 L72.1793302,119.247173 Z M562.23519,116.521882 C562.786861,116.495852 563.25518,116.921968 563.28121,117.473639 C563.289958,117.65905 563.246929,117.843236 563.156941,118.00558 L554.71448,133.236183 C554.446727,133.719222 553.838089,133.893746 553.35505,133.625993 C553.192706,133.536004 553.058612,133.402607 552.967778,133.240734 L544.859473,118.79106 C544.589207,118.309422 544.760557,117.699884 545.242194,117.429618 C545.377746,117.353554 545.529162,117.310136 545.684423,117.30281 L562.23519,116.521882 Z M172.986106,106.687147 C173.110382,106.785751 173.209415,106.912507 173.275025,107.056945 L180.5852,123.150058 C180.81361,123.652897 180.591143,124.245692 180.088304,124.474102 C179.920773,124.550202 179.735493,124.578603 179.55286,124.556178 L161.256377,122.309653 C160.708209,122.242346 160.318394,121.743405 160.3857,121.195237 C160.408125,121.012604 160.480505,120.839699 160.594874,120.695554 L171.581181,106.848967 C171.924455,106.416323 172.553462,106.343873 172.986106,106.687147 Z M194.353218,61.1792582 C194.65972,61.8676728 195.132826,62.1156298 196.730127,62.4350826 L196.966064,62.4812603 C199.666551,62.9993858 200.894812,63.5789525 201.754265,65.5093142 C202.581886,67.3681811 202.249812,68.6430544 200.954355,70.8365471 L200.800615,71.0938047 C199.859251,72.6519223 199.69876,73.1855404 200.019857,73.9067366 C200.326359,74.5951513 200.799464,74.8431082 202.396765,75.162561 L202.632702,75.2087388 C205.33319,75.7268642 206.561451,76.3064309 207.420903,78.2367926 C208.248524,80.0956595 207.91645,81.3705328 206.620994,83.5640256 L206.467254,83.8212831 C205.568679,85.3085772 205.381602,85.8623913 205.645722,86.536919 L205.686495,86.6342151 L202.945859,87.854425 C202.118238,85.9955581 202.450312,84.7206849 203.745768,82.5271921 L204.137108,81.8694835 C204.866073,80.6132452 204.972174,80.1126355 204.680267,79.4570026 C204.38836,78.8013696 203.945339,78.5452447 202.524,78.2463832 L202.067422,78.1550004 C199.366934,77.636875 198.138673,77.0573083 197.27922,75.1269466 C196.4516,73.2680797 196.783673,71.9932064 198.07913,69.7997136 L198.23287,69.5424561 C199.174234,67.9843385 199.334726,67.4507204 199.013628,66.7295241 C198.721722,66.0738912 198.278701,65.8177663 196.857362,65.5189048 L196.400783,65.427522 C193.800314,64.9285864 192.565036,64.3726765 191.70965,62.6084595 L191.612582,62.3994681 L194.353218,61.1792582 Z M93.5014426,56 C98.195863,56 102.001443,59.8055796 102.001443,64.5 C102.001443,69.1944204 98.195863,73 93.5014426,73 C88.8070223,73 85.0014426,69.1944204 85.0014426,64.5 C85.0014426,59.8055796 88.8070223,56 93.5014426,56 Z M591.780058,38.6243471 C593.559719,39.6108296 594.061751,40.8288357 594.34723,43.3602621 L594.379269,43.6582401 C594.565161,45.4691351 594.758126,45.9918879 595.448593,46.3746197 C596.107674,46.7399546 596.634737,46.6532599 598.10265,45.9471064 L598.318868,45.8419952 C598.943753,45.5353394 599.495664,45.2886039 600.001481,45.1077205 L600.001,48.361 L599.64052,48.5351788 C597.171999,49.7465794 595.842274,50.0229029 593.994164,48.9984788 C592.214502,48.0119964 591.71247,46.7939903 591.426991,44.2625639 L591.394952,43.9645859 C591.20906,42.1536908 591.016095,41.6309381 590.325629,41.2482063 C589.697932,40.9002683 589.18998,40.9623345 587.874988,41.5790364 L587.455353,41.7808307 C585.078259,42.9473647 583.757168,43.2468037 582.012294,42.3526214 L581.808997,42.2441308 L583.263426,39.6202717 C583.922508,39.9856065 584.449571,39.8989118 585.917484,39.1927583 L586.133702,39.0876472 C588.602223,37.8762465 589.931948,37.5999231 591.780058,38.6243471 Z M32.0269355,23.0521774 C32.1591787,23.133857 32.270561,23.2452393 32.3522406,23.3774825 L41.0592264,37.4745071 C41.3494481,37.9443899 41.2038041,38.5605763 40.7339213,38.850798 C40.5759989,38.9483383 40.3940452,39 40.2084284,39 L22.7944568,39 C22.2421721,39 21.7944568,38.5522847 21.7944568,38 C21.7944568,37.8143832 21.8461185,37.6324295 21.9436588,37.4745071 L30.6506446,23.3774825 C30.9408663,22.9075997 31.5570527,22.7619557 32.0269355,23.0521774 Z M488.001443,7.5 C488.001443,12.1944204 484.195863,16 479.501443,16 C474.807022,16 471.001443,12.1944204 471.001443,7.5 C471.001443,4.25336142 472.821666,1.43185884 475.497278,0.000328184723 L483.505645,0.000348187198 C486.181236,1.43188513 488.001443,4.25337654 488.001443,7.5 Z M272.874,-2.84217094e-14 L283.024586,7.185544 C283.475334,7.50467471 283.582032,8.12878496 283.262901,8.57953327 C283.155645,8.73102478 283.008341,8.84967461 282.83748,8.92220086 L266.807835,15.7263816 C266.299454,15.9421765 265.712393,15.7049887 265.496599,15.1966079 C265.424072,15.0257468 265.400532,14.8380717 265.428613,14.6545913 L267.671,-2.84217094e-14 L272.874,-2.84217094e-14 Z M153.001,-2.84217094e-14 L153.001443,8 C153.001443,8.55228475 152.553727,9 152.001443,9 L137.001443,9 C136.449158,9 136.001443,8.55228475 136.001443,8 L136.001,-2.84217094e-14 L153.001,-2.84217094e-14 Z" id="Combined-Shape" fill="#CFD6FF"></path>
            <g id="Title/description" transform="translate(42.001443, 68.000000)" fill="#3C3C3C">
                <text id="Mirror-Website" font-family="WorkSans-Bold, Work Sans" font-size="50" font-weight="bold" line-spacing="40" letter-spacing="1.25">
                    <tspan x="0" y="35">Mirror </tspan>
                    <tspan x="0" y="75">Website</tspan>
                </text>
                <text id="A-responsive-website" font-family="WorkSans-Light, Work Sans" font-size="16" font-weight="300" line-spacing="20" letter-spacing="0.4">
                    <tspan x="3" y="122">A responsive website for a </tspan>
                    <tspan x="3" y="142">physical store looking to </tspan>
                    <tspan x="3" y="162">expand into e-commerce.</tspan>
                </text>
                <text id="2020-•-PRODUCT-DESIG" font-family="WorkSans-Medium, Work Sans" font-size="14" font-weight="400" line-spacing="20" letter-spacing="0.35">
                    <tspan x="4" y="98">2020 • PRODUCT DESIGN</tspan>
                </text>
            </g>
        </g>
    </g>
</svg>