<svg xmlns="http://www.w3.org/2000/svg" width="1485" height="132" viewBox="0 0 1485 132"><title>  header</title><g fill="none"><g fill="#FFC800"><path d="M791.5 117L791 117C779.1 117.4 779 132 766.8 132 754.4 132 754.4 117 742 117L742.2 117C730.1 117.2 730 132 717.8 132 705.4 132 705.4 117 693 117 680.6 117 680.6 132 668.3 132 655.9 132 655.9 117 643.5 117 631.1 117 631.1 132 618.8 132 606.4 132 606.4 117 594 117 581.6 117 581.6 132 569.3 132 556.9 132 556.9 117 544.5 117 532.1 117 532.1 132 519.8 132 507.4 132 507.4 117 495 117 482.6 117 482.6 132 470.3 132 457.9 132 457.9 117 445.5 117 433.1 117 433.1 132 420.8 132 408.4 132 408.4 117 396 117 383.6 117 383.6 132 371.3 132 358.9 132 358.9 117 346.5 117 334.1 117 334.1 132 321.8 132 309.4 132 309.4 117 297 117 284.6 117 284.6 132 272.3 132 259.9 132 259.9 117 247.5 117 235.1 117 235.1 132 222.8 132 210.4 132 210.4 117 198 117 185.6 117 185.6 132 173.3 132 160.9 132 160.9 117 148.5 117 136.1 117 136.1 132 123.8 132 111.4 132 111.4 117 99 117 86.6 117 86.6 132 74.3 132 61.9 132 61.9 117 49.5 117 37.1 117 37.1 132 24.8 132 12.4 132 12.4 117 0 117L0 117 0 0 0 0C12.4 0 12.4 15 24.8 15 37.1 15 37.1 0 49.5 0 61.9 0 61.9 15 74.3 15 86.6 15 86.6 0 99 0 111.4 0 111.4 15 123.8 15 136.1 15 136.1 0 148.5 0 160.9 0 160.9 15 173.3 15 185.6 15 185.6 0 198 0 210.4 0 210.4 15 222.8 15 235.1 15 235.1 0 247.5 0 259.9 0 259.9 15 272.3 15 284.6 15 284.6 0 297 0 309.4 0 309.4 15 321.8 15 334.1 15 334.1 0 346.5 0 358.9 0 358.9 15 371.3 15 383.6 15 383.6 0 396 0 408.4 0 408.4 15 420.8 15 433.1 15 433.1 0 445.5 0 457.9 0 457.9 15 470.3 15 482.6 15 482.6 0 495 0 507.4 0 507.4 15 519.8 15 532.1 15 532.1 0 544.5 0 556.9 0 556.9 15 569.3 15 581.6 15 581.6 0 594 0 606.4 0 606.4 15 618.8 15 631.1 15 631.1 0 643.5 0 655.9 0 655.9 15 668.3 15 680.6 15 680.6 0 693 0 705.4 0 705.4 15 717.8 15 730 15 730.1 0.4 742 0L742 0 742.2 0C742.3 0 742.4 0 742.5 0L742.5 0C754.4 0.4 754.5 15 766.8 15 779.1 15 779.1 0 791.5 0 803.9 0 803.9 15 816.3 15 828.6 15 828.6 0 841 0 853.4 0 853.4 15 865.8 15 878.1 15 878.1 0 890.5 0 902.9 0 902.9 15 915.3 15 927.6 15 927.6 0 940 0 952.4 0 952.4 15 964.8 15 977.1 15 977.1 0 989.5 0 1001.9 0 1001.9 15 1014.3 15 1026.6 15 1026.6 0 1039 0 1051.4 0 1051.4 15 1063.8 15 1076.1 15 1076.1 0 1088.5 0 1100.9 0 1100.9 15 1113.3 15 1125.6 15 1125.6 0 1138 0 1150.4 0 1150.4 15 1162.8 15 1175.1 15 1175.1 0 1187.5 0 1199.9 0 1199.9 15 1212.3 15 1224.6 15 1224.6 0 1237 0 1249.4 0 1249.4 15 1261.8 15 1274.1 15 1274.1 0 1286.5 0 1298.9 0 1298.9 15 1311.3 15 1323.6 15 1323.6 0 1336 0 1348.4 0 1348.4 15 1360.8 15 1373.1 15 1373.1 0 1385.5 0 1397.9 0 1397.9 15 1410.3 15 1422.6 15 1422.6 0 1435 0 1447.4 0 1447.4 15 1459.8 15 1472.1 15 1472.1 0 1484.5 0L1484.5 117 1484.5 117 791.5 117ZM1484.5 117C1472.1 117 1472.1 132 1459.8 132 1447.4 132 1447.4 117 1435 117L1435 117ZM841 117L840.5 117C828.6 117.4 828.5 132 816.3 132 803.9 132 803.9 117 791.5 117L791.5 117 841 117ZM890.5 117L890 117C878.1 117.4 878 132 865.8 132 853.4 132 853.4 117 841 117L841 117 890.5 117ZM940 117L939.5 117C927.6 117.4 927.5 132 915.3 132 902.9 132 902.9 117 890.5 117L890.5 117 940 117ZM989.5 117L989 117C977.1 117.4 977 132 964.8 132 952.4 132 952.4 117 940 117L940 117 989.5 117ZM1039 117L1038.5 117C1026.6 117.4 1026.5 132 1014.3 132 1001.9 132 1001.9 117 989.5 117L989.5 117 1039 117ZM1088.5 117L1088 117C1076.1 117.4 1076 132 1063.8 132 1051.4 132 1051.4 117 1039 117L1039 117 1088.5 117ZM1138 117L1137.5 117C1125.6 117.4 1125.5 132 1113.3 132 1100.9 132 1100.9 117 1088.5 117L1088.5 117 1138 117ZM1187.5 117L1187 117C1175.1 117.4 1175 132 1162.8 132 1150.4 132 1150.4 117 1138 117L1138 117 1187.5 117ZM1237 117L1236.5 117C1224.6 117.4 1224.5 132 1212.3 132 1199.9 132 1199.9 117 1187.5 117L1187.5 117 1237 117ZM1286.5 117L1286 117C1274.1 117.4 1274 132 1261.8 132 1249.4 132 1249.4 117 1237 117L1237 117 1286.5 117ZM1336 117L1335.5 117C1323.6 117.4 1323.5 132 1311.3 132 1298.9 132 1298.9 117 1286.5 117L1286.5 117 1336 117ZM1385.5 117L1385 117C1373.1 117.4 1373 132 1360.8 132 1348.4 132 1348.4 117 1336 117L1336 117 1385.5 117ZM1435 117L1434.5 117C1422.6 117.4 1422.5 132 1410.3 132 1397.9 132 1397.9 117 1385.5 117L1385.5 117 1435 117Z"/></g></g></svg>